<?xml version="1.0" encoding="UTF-8"?>
<!DOCTYPE svg PUBLIC "-//W3C//DTD SVG 1.1//EN" "http://www.w3.org/Graphics/SVG/1.1/DTD/svg11.dtd">
<!-- Creator: CorelDRAW X8 -->
<svg xmlns="http://www.w3.org/2000/svg" xml:space="preserve" width="130mm" height="80mm" version="1.1" style="shape-rendering:geometricPrecision; text-rendering:geometricPrecision; image-rendering:optimizeQuality; fill-rule:evenodd; clip-rule:evenodd"
viewBox="0 0 13000 8000"
 xmlns:xlink="http://www.w3.org/1999/xlink">
 <defs>
  <style type="text/css">
   <![CDATA[
    .str0 {stroke:black;stroke-width:20}
    .fil1 {fill:none}
    .fil2 {fill:#444444}
    .fil0 {fill:#777777;fill-rule:nonzero}
   ]]>
  </style>
 </defs>
 <g id="Слой_x0020_1">
  <metadata id="CorelCorpID_0Corel-Layer"/>
  <path class="fil0" d="M1069 5694l-225 0 0 452 -101 0 0 -986 101 0 0 442 225 0 334 -442 113 0 -366 479 387 507 -120 0 -348 -452zm1059 460c-98,0 -186,-21 -265,-65 -80,-44 -142,-104 -186,-180 -45,-76 -67,-161 -67,-256 0,-95 22,-180 67,-256 44,-76 106,-136 186,-180 79,-43 167,-65 265,-65 98,0 186,21 264,65 78,43 140,103 185,179 45,77 68,162 68,257 0,95 -23,181 -68,257 -45,77 -107,136 -185,180 -78,43 -166,64 -264,64zm0 -92c78,0 148,-18 211,-53 63,-36 112,-84 148,-147 36,-62 53,-132 53,-209 0,-77 -17,-147 -53,-209 -36,-62 -85,-111 -148,-146 -63,-36 -133,-53 -211,-53 -78,0 -149,17 -212,53 -63,35 -113,84 -149,146 -36,62 -54,132 -54,209 0,77 18,147 54,209 36,63 86,111 149,147 63,35 134,53 212,53zm1197 92c-98,0 -186,-21 -264,-64 -79,-44 -140,-103 -185,-180 -44,-76 -67,-162 -67,-257 0,-95 23,-180 67,-257 45,-76 107,-136 185,-179 79,-44 167,-65 265,-65 73,0 141,12 203,36 62,25 114,61 157,107l-66 67c-77,-78 -174,-117 -291,-117 -78,0 -149,18 -213,53 -64,36 -114,85 -150,147 -36,62 -54,131 -54,208 0,77 18,147 54,209 36,62 86,110 150,146 64,36 135,54 213,54 118,0 215,-40 291,-119l66 66c-43,47 -96,83 -158,108 -62,25 -130,37 -203,37zm1209 -904l-346 0 0 896 -103 0 0 -896 -346 0 0 -90 795 0 0 90zm552 -90c126,0 224,30 295,90 72,60 107,143 107,248 0,105 -35,188 -107,247 -71,60 -169,90 -295,90l-265 0 0 311 -104 0 0 -986 369 0zm-3 583c98,0 172,-21 224,-64 51,-43 77,-103 77,-181 0,-80 -26,-141 -77,-184 -52,-42 -126,-64 -224,-64l-262 0 0 493 262 0zm1066 411c-98,0 -186,-21 -266,-65 -79,-44 -141,-104 -185,-180 -45,-76 -67,-161 -67,-256 0,-95 22,-180 67,-256 44,-76 106,-136 185,-180 80,-43 168,-65 266,-65 97,0 185,21 264,65 78,43 140,103 185,179 45,77 67,162 67,257 0,95 -22,181 -67,257 -45,77 -107,136 -185,180 -79,43 -167,64 -264,64zm0 -92c78,0 148,-18 211,-53 63,-36 112,-84 148,-147 35,-62 53,-132 53,-209 0,-77 -18,-147 -53,-209 -36,-62 -85,-111 -148,-146 -63,-36 -133,-53 -211,-53 -78,0 -149,17 -212,53 -63,35 -113,84 -149,146 -36,62 -55,132 -55,209 0,77 19,147 55,209 36,63 86,111 149,147 63,35 134,53 212,53zm1789 -902l0 986 -100 0 0 -789 -387 664 -49 0 -387 -659 0 784 -100 0 0 -986 85 0 428 731 424 -731 86 0zm763 994c-97,0 -185,-21 -264,-64 -78,-44 -140,-103 -184,-180 -45,-76 -67,-162 -67,-257 0,-95 22,-180 67,-257 44,-76 106,-136 185,-179 79,-44 167,-65 265,-65 73,0 140,12 202,36 62,25 115,61 158,107l-66 67c-77,-78 -174,-117 -292,-117 -78,0 -148,18 -212,53 -64,36 -114,85 -150,147 -36,62 -54,131 -54,208 0,77 18,147 54,209 36,62 86,110 150,146 64,36 134,54 212,54 119,0 216,-40 292,-119l66 66c-43,47 -96,83 -158,108 -63,25 -131,37 -204,37zm904 -460l-225 0 0 452 -102 0 0 -986 102 0 0 442 225 0 334 -442 112 0 -366 479 387 507 -119 0 -348 -452zm1059 460c-98,0 -186,-21 -266,-65 -79,-44 -141,-104 -186,-180 -44,-76 -66,-161 -66,-256 0,-95 22,-180 66,-256 45,-76 107,-136 186,-180 80,-43 168,-65 266,-65 97,0 185,21 264,65 78,43 140,103 185,179 45,77 67,162 67,257 0,95 -22,181 -67,257 -45,77 -107,136 -185,180 -79,43 -167,64 -264,64zm0 -92c78,0 148,-18 211,-53 63,-36 112,-84 148,-147 35,-62 53,-132 53,-209 0,-77 -18,-147 -53,-209 -36,-62 -85,-111 -148,-146 -63,-36 -133,-53 -211,-53 -78,0 -149,17 -212,53 -64,35 -113,84 -149,146 -37,62 -55,132 -55,209 0,77 18,147 55,209 36,63 85,111 149,147 63,35 134,53 212,53zm766 -902l102 0 0 817 631 -817 94 0 0 986 -102 0 0 -815 -631 815 -94 0 0 -986zm411 -72c-71,0 -126,-15 -167,-47 -41,-32 -62,-77 -63,-134l78 0c1,37 15,67 42,89 27,21 64,32 110,32 45,0 81,-11 109,-32 27,-22 42,-52 43,-89l77 0c-1,57 -22,102 -63,134 -42,32 -97,47 -166,47z"/>
  <path class="fil0" d="M776 7461l-549 0 -119 264 -108 0 451 -986 102 0 451 986 -110 0 -118 -264zm-38 -84l-237 -530 -236 530 473 0zm1230 -638l0 986 -103 0 0 -896 -475 0 -12 330c-4,136 -15,245 -33,328 -17,84 -44,145 -79,186 -36,41 -83,62 -143,62 -25,0 -51,-4 -78,-10l8 -93c16,4 32,5 47,5 41,0 74,-16 100,-49 26,-33 45,-84 59,-153 13,-69 22,-160 26,-274l14 -422 669 0zm1356 0l0 986 -100 0 0 -789 -387 663 -49 0 -388 -659 0 785 -100 0 0 -986 86 0 428 731 424 -731 86 0zm963 722l-549 0 -118 264 -109 0 451 -986 102 0 451 986 -110 0 -118 -264zm-38 -84l-237 -530 -236 530 473 0zm883 -168c64,16 115,45 152,88 37,42 56,93 56,152 0,57 -18,107 -54,150 -35,44 -83,77 -142,100 -59,23 -123,34 -193,34 -65,0 -130,-10 -193,-32 -64,-21 -121,-52 -171,-95l38 -74c43,36 92,64 148,84 55,19 111,28 167,28 54,0 103,-8 148,-25 45,-17 81,-41 108,-72 26,-32 40,-69 40,-112 0,-58 -23,-102 -68,-133 -45,-31 -108,-46 -190,-46l-211 0 0 -85 205 0c70,0 124,-14 163,-44 39,-30 59,-71 59,-123 0,-58 -25,-104 -75,-138 -50,-33 -112,-50 -187,-50 -47,0 -95,7 -143,21 -47,13 -93,34 -136,61l-35 -86c97,-58 203,-87 316,-87 67,0 128,11 184,32 55,22 99,53 131,93 33,41 49,88 49,142 0,53 -15,98 -44,136 -29,38 -70,65 -122,81zm1291 -470l0 986 -103 0 0 -455 -617 0 0 455 -104 0 0 -986 104 0 0 439 617 0 0 -439 103 0zm744 352c117,0 206,26 267,79 62,52 92,129 92,231 0,106 -32,186 -98,241 -65,55 -159,83 -282,83l-391 0 0 -986 103 0 0 352 309 0zm-24 551c91,0 161,-21 208,-61 47,-40 71,-100 71,-179 0,-151 -93,-226 -279,-226l-285 0 0 466 285 0zm554 -903l102 0 0 986 -102 0 0 -986zm435 0l102 0 0 817 631 -817 95 0 0 986 -103 0 0 -816 -631 816 -94 0 0 -986zm411 -72c-71,0 -126,-16 -167,-48 -41,-32 -62,-76 -63,-133l78 0c1,37 15,67 42,88 27,22 64,33 110,33 45,0 81,-11 109,-33 28,-21 42,-51 43,-88l77 0c-1,57 -22,101 -63,133 -41,32 -97,48 -166,48zm2023 968l0 311 -97 0 0 -221 -860 0 -2 221 -97 0 1 -311 50 0c64,-4 109,-56 135,-155 25,-99 41,-239 46,-421l12 -320 664 0 0 896 148 0zm-731 -566c-5,150 -16,273 -34,371 -19,97 -49,162 -93,195l607 0 0 -806 -471 0 -9 240zm1376 664c-98,0 -186,-22 -266,-65 -79,-44 -141,-104 -186,-180 -44,-76 -66,-161 -66,-256 0,-95 22,-180 66,-256 45,-76 107,-136 186,-180 80,-44 168,-65 266,-65 97,0 185,21 264,64 78,44 140,103 185,180 45,76 67,162 67,257 0,95 -22,180 -67,257 -45,76 -107,136 -185,179 -79,44 -167,65 -264,65zm0 -93c78,0 148,-17 211,-53 63,-35 112,-84 148,-146 35,-62 53,-132 53,-209 0,-77 -18,-147 -53,-209 -36,-63 -85,-111 -148,-147 -63,-35 -133,-53 -211,-53 -78,0 -149,18 -212,53 -64,36 -113,84 -149,147 -37,62 -55,132 -55,209 0,77 18,147 55,209 36,62 85,111 149,146 63,36 134,53 212,53zm1789 -901l0 986 -100 0 0 -789 -387 663 -49 0 -388 -659 0 785 -99 0 0 -986 85 0 428 731 424 -731 86 0z"/>
  <rect class="fil1 str0" x="-28702" y="-2983" width="702" height="483"/>
  <polygon class="fil2" points="4917,500 6282,500 5939,841 5058,841 4018,1881 4458,2319 4218,2562 3777,2122 3534,1881 3777,1638 "/>
  <polygon class="fil2" points="6500,983 4566,2916 4323,2675 6259,741 6500,500 6743,741 8677,2673 8435,2915 "/>
  <polygon class="fil2" points="6720,500 8073,500 9223,1640 9225,1640 9466,1881 9225,2124 8784,2562 8544,2319 8982,1883 7932,841 7063,841 "/>
  <polygon class="fil2" points="8323,3023 6500,4866 4679,3023 4919,2780 6500,4359 8083,2780 "/>
 </g>
</svg>
